<svg id="svg" version="1.1" xmlns="http://www.w3.org/2000/svg" xmlns:xlink="http://www.w3.org/1999/xlink" width="400" height="400" viewBox="0, 0, 400,400"><g id="svgg"><path id="path0" d="M244.400 44.234 C 242.750 44.536,237.686 44.961,233.146 45.178 C 222.836 45.673,220.941 46.064,208.600 50.245 C 192.310 55.764,182.669 59.936,173.652 65.369 C 164.787 70.710,160.049 72.299,149.710 73.397 C 141.958 74.220,138.935 74.851,132.633 76.965 C 129.755 77.930,123.991 79.654,119.824 80.796 C 115.657 81.937,109.717 83.746,106.624 84.815 C 103.531 85.885,98.750 87.387,96.000 88.155 C 85.665 91.039,69.484 101.581,64.545 108.648 C 53.616 124.287,48.875 145.846,51.758 166.800 C 54.443 186.309,57.079 193.084,65.471 202.036 C 67.412 204.106,71.108 208.165,73.684 211.055 C 88.684 227.883,104.984 234.261,131.000 233.483 C 153.227 232.818,173.374 222.341,182.975 206.454 C 186.836 200.065,189.876 197.476,194.720 196.449 C 199.480 195.440,201.304 193.460,203.351 187.078 C 205.751 179.593,207.615 177.842,213.872 177.190 C 226.098 175.916,246.915 164.334,260.476 151.262 C 272.235 139.927,277.793 131.429,283.932 115.400 C 285.449 111.440,287.513 106.310,288.519 104.000 C 296.493 85.690,293.874 65.428,281.869 52.549 C 275.029 45.210,258.787 41.606,244.400 44.234 " stroke="none" fill="#fbfbfb" fill-rule="evenodd"></path><path id="path1" d="M257.014 38.020 C 253.930 38.502,251.505 39.317,246.692 41.490 C 244.543 42.461,241.529 43.558,239.995 43.927 C 238.461 44.297,237.204 44.735,237.203 44.900 C 237.199 45.320,237.571 45.289,243.200 44.400 C 264.012 41.113,279.257 46.107,286.341 58.531 C 294.756 73.291,295.463 88.055,288.519 104.000 C 287.513 106.310,285.449 111.440,283.932 115.400 C 277.793 131.429,272.235 139.927,260.476 151.262 C 246.915 164.334,226.098 175.916,213.872 177.190 C 207.615 177.842,205.751 179.593,203.351 187.078 C 201.304 193.460,199.480 195.440,194.720 196.449 C 189.876 197.476,186.836 200.065,182.975 206.454 C 173.374 222.341,153.227 232.818,131.000 233.483 C 104.984 234.261,88.684 227.883,73.684 211.055 C 71.108 208.165,67.412 204.106,65.471 202.036 C 58.201 194.281,55.873 189.405,53.419 176.800 C 48.516 151.606,50.724 133.588,61.066 114.405 C 65.040 107.034,68.608 103.435,78.582 96.737 C 81.232 94.958,83.462 93.447,83.538 93.380 C 83.960 93.005,70.123 97.673,67.621 98.750 C 51.693 105.603,41.047 123.260,30.208 160.800 C 22.021 189.155,22.396 218.408,31.235 240.850 C 41.225 266.217,60.991 293.520,79.400 307.383 C 84.645 311.333,112.275 327.281,125.941 334.246 C 149.006 346.002,163.901 346.880,210.000 339.199 C 259.537 330.945,283.221 320.442,321.400 289.795 C 357.715 260.645,370.859 242.696,375.186 216.348 C 375.860 212.249,377.145 206.219,378.044 202.948 C 382.188 187.858,382.415 182.404,379.630 164.924 C 378.970 160.786,377.974 152.990,377.415 147.600 C 375.643 130.488,372.342 117.851,366.347 105.227 C 355.243 81.846,335.304 61.152,315.829 52.796 C 291.537 42.372,267.621 36.364,257.014 38.020 " stroke="none" fill="#040404" fill-rule="evenodd"></path></g></svg>